
<svg width="459px" height="628px" viewBox="0 0 459 628" version="1.1" xmlns="http://www.w3.org/2000/svg" xmlns:xlink="http://www.w3.org/1999/xlink">
    <!-- Generator: Sketch 46.2 (44496) - http://www.bohemiancoding.com/sketch -->
    <desc>Created with Sketch.</desc>
    <defs></defs>
    <g id="Logo" stroke="none" stroke-width="1" fill="none" fill-rule="evenodd">
        <path d="M73.6748047,64.6074219 C73.6748047,64.6074219 72.2089844,73.0472005 72.2089844,88.8701172 C72.2089844,92.0913809 72.6975911,97.4849356 73.6748047,105.050781 C59.1350911,112.758464 51.1790365,118.291016 49.8066406,121.648437 C47.7480469,126.68457 43.6367188,118.038086 46.7216797,142.466797 C47.7089729,150.284822 49.4341208,159.956356 49.8066406,167.876953 C50.5981206,184.70557 48.9289122,198.093435 46.7216797,200.373047 C44.5576172,202.608073 41.5292969,207.903646 37.6367188,216.259766 L37.6367188,218.913086 C43.3769949,224.784856 48.6045339,228.046575 53.3193359,228.698242 C58.0341379,229.34991 67.9006744,228.174454 82.9189453,225.171875 C86.3930773,224.601359 89.0317492,224.601359 90.8349609,225.171875 C92.3759069,225.659413 97.1444497,229.675362 97.9667969,230.324219 C100.232608,232.112011 102.35598,236.027701 104.336914,242.071289 C110.324089,237.675497 114.318229,235.597372 116.319336,235.836914 C117.777318,236.011441 126.263986,230.990904 131.081055,228.698242 C132.277351,228.128871 140.275072,224.867152 155.074219,218.913086 C156.391927,212.120768 154.769206,209.044596 150.206055,209.68457 C145.642904,210.324544 141.156576,208.553385 136.74707,204.371094 C144.00944,198.73763 146.77181,194.561523 145.03418,191.842773 C143.296549,189.124023 143.296549,185.945638 145.03418,182.307617 C138.535482,186.649414 133.88444,189.126953 131.081055,189.740234 C126.875977,190.660156 113.911133,187.430664 113.007813,182.307617 C112.42679,179.012435 110.608664,169.264404 113.007813,162.045898 C113.895031,159.376456 116.736502,156.474275 121.532227,153.339355 L123.533203,142.466797 C127.860026,133.208984 132.264648,127.424805 136.74707,125.114258 C143.470703,121.648438 158.548828,140.032227 158.522461,147.665039 C158.517814,149.010245 178.57379,146.948969 178.379883,147.665039 C177.473545,151.012015 208.194336,139.791992 206.938477,137.685547 C205.682617,135.579102 199.650391,111.683594 209.487305,109.263672 C219.324219,106.84375 220.892578,119.615234 223.536133,119.121094 C224.675284,118.90816 227.314397,125.412762 232.146484,130.80957 C236.400765,135.561044 241.732471,139.446787 248.141602,142.466797 C249.657227,151.962891 250.036133,157.382487 249.27832,158.725586 C248.141602,160.740234 244.366211,171.458984 233.951172,167.876953 C227.007813,165.488932 225.05599,164.294922 228.095703,164.294922 L229.729492,175.569336 C234.157663,181.719449 236.613392,186.443082 237.09668,189.740234 C237.579967,193.037387 236.531464,197.91434 233.951172,204.371094 C232.748047,212.296875 232.146484,216.259766 232.146484,216.259766 C232.146484,216.259766 228.847005,217.641927 222.248047,220.40625 L223.536133,232.693359 C222.79518,236.07727 222.365818,238.585408 222.248047,240.217773 C222.130276,241.850139 222.130276,245.293173 222.248047,250.546875 C211.654948,258.125 201.695312,261.632161 192.369141,261.068359 C178.379883,260.222656 177.803711,256.692383 176.5625,254.527344 C175.735026,253.083984 169.72168,245.80599 158.522461,232.693359 L158.522461,227.341797 L127.265625,242.071289 L145.03418,261.068359 C154.901163,264.455048 162.376423,266.844046 167.459961,268.235352 C172.543499,269.626657 179.383668,271.155629 187.980469,272.822266 C200.691907,272.162699 207.860852,271.243753 209.487305,270.06543 C220.167643,261.493815 226.915039,253.646159 229.729492,246.522461 C233.951172,235.836914 269.991211,189.996094 276.074219,186.90625 C280.129557,184.846354 283.041016,178.503255 284.808594,167.876953 C277.176432,134.224609 263.04362,107.888997 242.410156,88.8701172 C211.459961,60.3417969 222.72168,58.0097656 202.206055,44.4199219 C192.113461,37.7344432 160.248209,24.1587304 131.081055,30.7392578 C100.958952,37.5352354 73.6748047,64.6074219 73.6748047,64.6074219 Z" id="Path-10" fill="#FAF5E5"></path>
        <path d="M157.074397,145.831651 C163.372209,146.585022 168.326097,145.73165 172.34264,145.831651 C175.839995,145.918725 179.207965,145.918725 182.44655,145.831651 C197.246132,142.722918 205.556367,139.366433 207.377254,135.762194 C210.108585,130.355837 227.973104,155.171213 229.057574,164.193118 C230.142043,173.215022 229.355904,178.768386 236.772829,185.006412 C241.717445,189.165096 240.980019,194.366192 234.560551,200.609701 C235.250607,206.477639 235.250607,210.317637 234.560551,212.129694 C233.525467,214.847779 229.830611,221.925697 224.030312,220.167783 C220.163445,218.99584 213.918339,218.043551 205.294992,217.310915 L205.294992,218.416037 C195.710808,222.183388 188.09466,223.889901 182.44655,223.535577 C173.974383,223.00409 161.694479,223.385486 157.074397,227.326915 C153.994343,229.954534 152.454315,224.888794 152.454315,212.129694 L135,205.86494 L145.047469,194.112614 L142.66083,185.006412 L142.66083,181.5 L147.116629,177.803075 L147.116629,164.193118 C150.007067,160.357187 151.786296,157.403343 152.454315,155.331585 C153.309266,152.680088 154.48283,151.634852 155.961707,149.765884 C156.592586,148.968596 154.690217,145.546445 157.074397,145.831651 Z" id="Path-11" fill="#F6F6F6"></path>
        <g id="Black" transform="translate(9.000000, 0.000000)" fill="#161718">
            <path d="M232.608398,0.505859375 C243.605143,4.50260417 249.71582,9.36425781 250.94043,15.0908203 C252.777344,23.6806641 256.727539,36.4208984 257.381836,39.7578125 C257.818034,41.9824219 257.818034,47.9121094 257.381836,57.546875 C257.381836,64.3496094 257.381836,68.6149089 257.381836,70.3427734 C257.381836,72.9345703 255.125977,82.3457031 253.835938,83.7744141 C252.975911,84.726888 245.900065,85.6158854 232.608398,86.4414062 L192.53418,45.8144531 L200.867188,38.5146484 L205.011719,38.5146484 C203.024089,37.2373047 203.024089,33.6559245 205.011719,27.7705078 C206.999349,21.8850911 216.198242,12.796875 232.608398,0.505859375 Z" id="Path"></path>
            <path d="M64.0615234,65.3701172 L58.4140625,67.1542969 C54.1588542,65.9101562 50.9804687,62.4029948 48.8789062,56.6328125 C46.7773438,50.8626302 40.3007813,43.90625 29.4492188,35.7636719 C20.2584635,35.8776042 15.2399089,38.1285807 14.3935547,42.5166016 C13.5472005,46.9046224 12.766276,53.6041667 12.0507813,62.6152344 C9.12825521,72.1614583 7.94726563,79.7490234 8.5078125,85.3779297 C9.34863281,93.8212891 5.6328125,107.901367 17.5410156,117.036133 C25.4798177,123.125977 33.0358073,124.67806 40.2089844,121.692383 L64.0615234,104.829102 L64.0615234,65.3701172 Z" id="Path-2"></path>
            <path d="M150.666992,147.394531 C147.374732,141.563352 144.886126,137.519406 143.201172,135.262695 C139.307172,130.04734 135.229085,126.200115 131.847656,125.597656 C126.271484,124.604167 122.637044,126.77832 120.944336,132.120117 C118.366211,135.023112 116.795247,137.292969 116.231445,138.929688 C115.385742,141.384766 113.399414,143.894531 113.893555,148.657227 C114.222982,151.832357 111.858724,154.379557 106.800781,156.298828 C102.83138,161.45638 101.414063,165.956055 102.548828,169.797852 C103.258113,172.199165 102.186915,182.204263 106.800781,186.743164 C108.645937,188.55834 113.360455,189.487376 120.944336,189.530273 C132.963867,185.657227 139.09375,181.598633 139.333984,177.354492 C139.574219,173.110352 139.574219,168.924479 139.333984,164.796875 C143.421875,160.091146 145.897786,156.583008 146.761719,154.272461 C147.625651,151.961914 148.927409,149.669271 150.666992,147.394531 Z" id="Path-3"></path>
            <path d="M201.417969,108.847656 C197.197917,108.739583 195.010417,112.610677 194.855469,120.460938 C194.700521,128.311198 195.794271,134.345703 198.136719,138.564453 C205.045573,142.049479 209.749674,145.297201 212.249023,148.307617 C214.748372,151.318034 216.650065,156.058919 217.954102,162.530273 C219.151367,167.253581 223.097656,169.172201 229.792969,168.286133 C236.488281,167.400065 239.835938,161.966797 239.835938,151.986328 C239.491536,145.10269 237.415365,140.66417 233.607422,138.670768 C229.799479,136.677365 222.680013,129.258789 212.249023,116.415039 C211.196289,114.572591 209.984049,112.625326 208.612305,110.573242 C207.24056,108.521159 204.842448,107.945964 201.417969,108.847656 Z" id="Path-4"></path>
            <path d="M193.358398,187.972656 C199.27832,184.909505 206.005534,184.427734 213.540039,186.527344 C221.074544,188.626953 214.347331,196.731445 193.358398,210.84082 C176.18457,205.266241 167.492839,201.000526 167.283203,198.043675 C167.073568,195.086824 167.552409,192.729818 168.719727,190.972656 L193.358398,187.972656 Z" id="Path-5"></path>
            <path d="M157.030273,224.867187 L151.151367,225.918945 C148.639648,225.896159 148.011719,227.313477 149.267578,230.170898 C151.151367,234.457031 163.007812,254.317383 169.0625,256.677734 C175.117188,259.038086 181.792969,263.764648 198.200195,259.038086 C209.138346,255.887044 214.036458,252.436849 212.894531,248.6875 C214.410807,234.970052 214.410807,226.653646 212.894531,223.738281 C211.378255,220.822917 209.772461,219.950846 208.077148,221.12207 C204.737695,221.710682 203.141992,222.582752 203.290039,223.738281 C203.543283,225.714882 202.919758,230.23417 202.170898,232.401367 C198.200195,243.892578 209.928232,236.163011 210.014648,237.341797 C210.373473,242.236461 209.653409,244.628862 210.014648,245.166016 C210.664388,246.132161 208.049805,247.801107 202.170898,250.172852 C188.926758,254.99056 181.490234,256.669922 179.861328,255.210937 C179.150885,254.574606 176.7675,253.251722 174.928711,250.172852 C173.135059,247.169558 171.932748,242.466889 167.5625,237.341797 C167.058433,236.750666 168.970046,233.29522 167.5625,232.401367 C166.736325,231.87671 165.814124,229.715903 164.795898,225.918945 L157.030273,224.867187 Z" id="Path-6"></path>
            <path d="M27.7041016,216.748047 C33.2187899,223.693707 37.9990633,227.499697 42.0449219,228.166016 C58.6134873,230.894718 74.0976563,224.388672 74.0976563,224.388672 C74.0976563,224.388672 82.7302229,223.508903 90.6464844,230.839355 C92.582362,232.631977 94.4606172,237.32908 96.28125,244.930664 L102.279297,251.920898 L119.286133,244.930664 C135.742513,259.100586 150.181641,267.320638 162.603516,269.59082 C181.236328,272.996094 198.509766,273.344727 206.575195,266.185547 C210.302526,262.877027 221.031763,240.907037 236.235352,221.348613 C253.930231,198.585307 276.046357,177.644614 274.770508,170.762695 C273.189128,162.232747 287.101563,179.09472 316.507813,221.348613 L316.507813,234.131836 L330.313477,234.131836 C345.605143,239.555013 355.644206,246.582357 360.430664,255.213867 C367.610352,268.161133 371.289063,293.926758 370.542969,299.961914 C369.796875,305.99707 362.202148,368.765625 371.289063,376.897461 C377.347005,382.318685 377.688151,385.941406 372.3125,387.765625 C360.007813,380.902344 353.236328,378.000977 351.998047,379.061523 C350.759766,380.12207 343.531576,385.12793 330.313477,394.079102 L324.484375,395.893555 L340.824219,347.03418 L338.995117,345.24707 L326.795898,372.213867 L323.279297,314.737305 C321.084635,311.877279 318.827474,310.246419 316.507813,309.844727 C313.02832,309.242188 309.583008,314.079102 310.055664,324.205078 C310.370768,330.955729 311.244141,346.958659 312.675781,372.213867 L308.240234,398.5625 C283.35668,390.89455 267.645092,383.003925 261.105469,374.890625 C246.433353,356.687853 247.462873,325.153745 244.549805,309.844727 C239.689128,284.300456 236.575846,282.414388 235.209961,304.186523 C214.379232,331.969727 199.671875,341.966471 191.087891,334.176758 C185.218797,328.850727 175.793233,360.105694 165.792969,357.283203 C153.854044,353.913541 140.799387,315.980652 127.93457,301.208008 C112.174154,283.110352 112.729167,292.12207 129.599609,328.243164 C141.638021,358.560872 144.370117,380.506185 137.795898,394.079102 C127.93457,414.438477 92.0605469,445.475586 63.9638672,446.780273 C51.5767541,447.355477 34.5427541,448.126377 20.8769531,433.104492 C16.2110323,427.975563 10.3803032,415.571917 3.38476563,395.893555 C10.3893229,365.255534 12.3098958,344.683268 9.14648438,334.176758 C5.98307292,323.670247 4.56835938,314.022135 4.90234375,305.232422 L46.1572266,282.473633 L47.6386719,277.334961 C48.0058594,273.235352 46.141276,271.673828 42.0449219,272.650391 C37.9485677,273.626953 24.1891276,279.938477 0.766601563,291.584961 C-0.849934896,262.94043 0.528645833,247.388997 4.90234375,244.930664 C9.27604167,242.472331 16.8766276,233.078125 27.7041016,216.748047 Z" id="Path-7"></path>
            <path d="M34.0742187,506.503906 C11.9433594,521.563151 4.56640625,545.25 11.9433594,577.564453 C19.3203125,609.878906 31.171875,626.036133 47.4980469,626.036133 L218.875,626.036133 C186.134766,601.700846 167.822917,584.621094 163.939453,574.796875 C160.05599,564.972656 165.681315,557.47168 180.81543,552.293945 C138.615072,535.342122 116.351929,525.26237 114.026001,522.054688 C110.537109,517.243164 76.6279297,492.136719 64.8359375,499.320313 C56.9746094,504.109375 47.3333333,506.503906 35.9121094,506.503906 L34.0742187,506.503906 Z" id="Path-8"></path>
            <path d="M349.375,395.707031 C349.375,395.707031 321.012695,407.924805 328.983398,448.491211 C334.297201,475.535482 331.640299,489.057617 321.012695,489.057617 C291.913086,500.819336 279.250977,513.59375 283.026367,527.380859 C286.801758,541.167969 330.213216,544.851888 413.260742,538.432617 L404.960938,557.938477 L443.610352,557.938477 C441.562174,480.37207 431.445638,437.420573 413.260742,429.083984 C385.983398,416.579102 412.504883,419.442383 379.128906,404.544922 C345.75293,389.647461 349.375,395.707031 349.375,395.707031 Z" id="Path-9"></path>
        </g>
        <path d="M210.383789,243.757813 L218.037109,237.546875 L218.037109,247.264648 C210.838304,249.11255 205.44475,250.51229 201.856445,251.463867 C198.268141,252.415444 194.001214,253.577554 189.055664,254.950195 C186.055664,248.077799 184.576497,243.971354 184.618164,242.630859 C184.659831,241.290365 184.680664,239.595703 184.680664,237.546875 L178.539062,230.001953 L181.266602,228.641602 L187.327148,237.546875 L189.055664,245.553711 C193.154735,247.55039 196.232209,248.462174 198.288086,248.289062 C200.343963,248.115951 204.375864,246.605534 210.383789,243.757813 Z" id="Path-12" fill="#FAF5E5"></path>
        <path d="M164.223633,224.458008 C168.003115,223.508454 170.845238,223.000641 172.75,222.93457 C179.94596,222.684962 186.301569,223.561923 190.137695,222.93457 C195.496949,222.058128 200.784384,220.288596 206,217.625977 L213.619206,218.396177 L223.253906,219.370117 L223.253906,222.93457 C219.609332,220.411133 217.092405,219.780273 215.703125,221.041992 C214.313845,222.303711 213.034874,224.243815 211.866211,226.862305 L211.866211,237.618164 L215.703125,237.618164 C214.264409,240.319383 212.985437,242.135464 211.866211,243.066406 C210.746985,243.997349 208.270097,245.305292 204.435547,246.990234 C200.397165,247.899963 197.672881,248.278544 196.262695,248.125977 C194.852509,247.973409 192.810843,247.079204 190.137695,245.443359 C189.265299,243.858724 188.577148,241.703451 188.073242,238.977539 C187.569336,236.251628 186.428711,234.223251 184.651367,232.89241 L181.317383,227.964844 L175.944336,231.827148 L172.75,226.862305 L164.223633,224.458008 Z" id="Path-15" fill="#E6B9B9"></path>
        <path d="M177.833984,231.160156 L176.295898,236.530273 L185.456055,252.288086 C186.112305,255.283529 187.46582,256.78125 189.516602,256.78125 C191.567383,256.78125 201.322266,253.971029 218.78125,248.350586 C217.288265,248.019134 215.632992,248.019134 213.81543,248.350586 C208.906731,249.24574 200.951353,251.623822 200.509766,252.288086 C199.822917,253.321289 196.158529,253.837891 189.516602,253.837891 C186.80957,250.063802 185.456055,245.165039 185.456055,239.141602 C185.456055,236.198595 184.240385,236.201637 183.027344,234.864258 C182.180888,233.931039 180.449768,232.696339 177.833984,231.160156 Z" id="Path-16" stroke="#979797" fill="#E6B9B9"></path>
        <path d="M203.230469,237.240234 C205.027995,235.983724 207.552734,233.93099 210.804687,231.082031 L210.804687,239.332031 C203.957682,239.19401 201.432943,238.496745 203.230469,237.240234 Z" id="Path-13" fill="#FAF5E5"></path>
        <polygon id="Path-14" fill="#FAF5E5" points="204.208008 223.96875 201.981445 228.378906 201.981445 232.796875 204.208008 232.796875 207.938477 228.382812"></polygon>
        <path d="M126.162109,292.930664 C130.092774,292.739445 133.037435,293.951359 134.996094,296.566406 C136.613338,298.725624 146.632112,317.44102 163.424805,343.816406 C165.788195,347.528458 169.400175,352.153458 174.260742,357.691406 C180.140144,355.034391 184.646654,352.120979 187.780273,348.951172 C189.686042,347.023395 190.551041,343.546543 192.643555,340.212891 C193.542333,338.781018 195.307307,336.623465 197.938477,333.740234 C202.817606,337.543254 208.209859,337.543254 214.115234,333.740234 C220.02061,329.937215 230.271912,319.457397 244.869141,302.300781 C244.457647,297.97265 244.457647,294.849278 244.869141,292.930664 C245.280634,291.01205 246.257848,289.579108 247.800781,288.631836 C251.504733,300.955414 254.036308,310.597992 255.395508,317.55957 C256.505896,323.246783 255.570137,334.700334 257.486328,348.951172 C257.772576,351.080015 259.038526,353.993426 261.28418,357.691406 C269.777623,372.199874 276.208287,380.978195 280.576172,384.026367 C283.323596,385.943684 290.200403,389.794021 300.375977,393.5 C304.377088,394.957219 311.532362,397.107935 321.841797,399.952148 L321.841797,415.410156 L295.014648,452.109375 L323.286133,421.567383 L321.841797,452.109375 L321.841797,456.00293 L296.75,471.339844 L321.841797,459.06543 L321.841797,493.908203 C304.167969,500.04362 294.39388,508.537435 292.519531,519.389648 C291.702793,524.118445 293.341625,533.042986 303.072266,536.263672 C311.472539,539.044028 333.855352,540.300212 370.220703,540.032227 L422.62207,538.698242 L414.623047,557.121094 L425.624023,557.121094 L414.623047,624.251953 L228.530273,625.957031 C204.907349,609.999338 188.217245,596.150706 178.459961,584.411133 C168.702677,572.67156 167.302937,564.755219 174.260742,560.662109 C178.404656,557.522155 181.749057,555.367207 184.293945,554.197266 C186.838833,553.027325 189.091112,552.609356 191.050781,552.943359 C179.906486,549.361064 171.783439,546.445048 166.681641,544.195312 C150.909462,537.240267 137.49618,529.240698 128.177734,524.541016 C120.75104,520.795423 113.9154,513.798125 105.825195,509.083008 C101.167839,506.368616 93.6268232,502.857874 83.2021484,498.550781 C79.1771088,498.03006 76.4277598,498.03006 74.9541016,498.550781 C73.4804433,499.071503 69.8124746,501.339081 63.9501953,505.353516 C51.9826804,505.987323 44.1714825,507.230487 40.5166016,509.083008 C36.8617206,510.935528 32.054429,516.088197 26.0947266,524.541016 C22.3301936,530.905248 20.1521337,536.068985 19.5605469,540.032227 C16.804533,558.495703 19.3762165,574.97314 20.8457031,580.869141 C22.1322607,586.031178 27.4868617,601.899577 35.9951172,613.408203 C38.8876131,617.320715 44.0129386,621.503658 51.3710938,625.957031 L43.3662109,624.251953 C26.5479071,606.132786 16.2484279,591.671849 12.4677734,580.869141 C8.68711893,570.066433 8.68711893,548.854193 12.4677734,517.232422 C15.8998112,494.181914 17.7136133,476.752552 17.9091797,464.944336 C18.104746,453.13612 16.9384049,431.472057 14.4101562,399.952148 C25.8432628,422.398424 34.5454113,435.910468 40.5166016,440.488281 C46.4877918,445.066094 57.9669585,447.026055 74.9541016,446.368164 C101.691337,435.776377 120.271741,425.976898 130.695312,416.969727 C134.002951,414.111544 136.968799,409.36473 139.50293,405.915039 C143.137487,400.967346 146.784297,392.707906 150.443359,381.136719 C149.33291,364.586963 147.631087,352.146859 145.337891,343.816406 C143.414129,336.827993 135.87048,324.983918 128.177734,305.84668 C127.192869,303.396631 126.520994,299.091292 126.162109,292.930664 Z" id="Path-17" fill="#FAF5E5"></path>
        <path d="M425.696289,556.737305 L454.227539,556.737305 C456.826497,572.497938 458.125977,584.225477 458.125977,591.919922 C458.125977,599.614366 456.826497,611.341905 454.227539,627.102539 L413.830078,624.383789 L425.696289,556.737305 Z" id="Path-18" fill="#161718"></path>
        <path d="M383.938477,386.24707 C392.77482,392.037784 399.38387,397.314151 403.765625,402.076172 C408.14738,406.838193 416.294516,417.598609 428.207031,434.357422 L407.693359,419.792969 L400.261719,410.302246 L360.991211,394.618164 C352.794104,398.709453 347.343583,402.970521 344.639648,407.401367 C341.935714,411.832214 339.302576,420.817565 336.740234,434.357422 L341.373047,475.950195 C340.164434,481.27708 338.980515,484.58665 337.821289,485.878906 C336.662064,487.171162 333.670527,488.516214 328.84668,489.914062 L328.84668,402.076172 L343.428711,390.879883 L362.694336,376.859375 L383.938477,386.24707 Z" id="Path-19" fill="#FAF5E5"></path>
        <path d="M331.834961,353.727539 C332.070003,345.47753 332.070003,335.398103 331.834961,323.489258 L333.191406,314.193359 L325.681641,307.803711 L319.723633,314.193359 L320.790039,353.727539 L323.677734,367.088867 L317.712891,396.339844 L323.677734,380.634766 L322.652344,415.918945 L295.999023,448.822266 L323.677734,422.355469 L322.652344,455.68457 L299.191406,469.341797 L322.652344,459.170898 L322.652344,493.930664 L329.914062,490.287109 L329.914062,400.867188 L350.09668,346.099609 C339.941846,365.688897 333.854606,376.014418 331.834961,377.076172 C328.220632,378.976272 331.707094,358.215672 331.834961,353.727539 Z" id="Path-20" fill="#A2C499"></path>
        <path d="M119.891602,233.557617 L126.822266,241.482422 L113.757812,249.580078 C110.583407,248.605759 108.432366,247.716436 107.304688,246.912109 C106.177009,246.107783 105.202725,244.767939 104.381836,242.892578 C106.821293,240.5788 108.9502,238.874698 110.768555,237.780273 C112.58691,236.685848 115.627925,235.278296 119.891602,233.557617 Z" id="Path-21" fill="#A2C499"></path>
        <path d="M120.839844,233.456055 L127.398438,242.075195 L156.631836,228.238281 C154.834609,227.412813 153.671198,226.373425 153.141602,225.120117 C152.612006,223.866809 152.612006,222.152942 153.141602,219.978516 C144.815195,222.733198 138.636158,224.951623 134.604492,226.633789 C130.572826,228.315956 125.98461,230.590044 120.839844,233.456055 Z" id="Path-22" fill="#CAE7B9"></path>
        <path d="M37.0126953,292.25 C20.4129452,300.626022 12.0695207,304.951869 11.9824219,305.227539 C11.5382938,306.633218 7.332964,306.214677 7.00195312,306.44043 C5.39010622,307.539724 3.69012325,305.70138 3.11132812,305.227539 C2.30179175,304.564798 1.37698707,301.441751 0.336914062,295.858398 L50.5800781,273.082031 C55.0546396,270.839595 57.5009286,270.2491 57.9189453,271.310547 C58.336962,272.371993 57.3298005,276.616785 54.8974609,284.044922 L37.0126953,292.25 Z" id="Path-23" fill="#A2C499"></path>
        <polygon id="Path-24" fill="#A2C499" points="329.183594 147.30957 340.365234 147.30957 336.347656 234.84375 325.243164 234.84375"></polygon>
    </g>
</svg>